<svg width="720" height="400" viewBox="0 0 720 400" xmlns="http://www.w3.org/2000/svg" font-family="-apple-system,'SF Pro Display','Segoe UI','Helvetica Neue',Arial,sans-serif">
  <defs>
    <radialGradient id="rg1" cx="0.9" cy="0.85" r="0.65">
      <stop offset="0" stop-color="#ff2d2d" stop-opacity="0.55"/><stop offset="1" stop-color="#ff2d2d" stop-opacity="0"/>
    </radialGradient>
    <radialGradient id="rg2" cx="0.08" cy="0.12" r="0.5">
      <stop offset="0" stop-color="#8a0f0f" stop-opacity="0.6"/><stop offset="1" stop-color="#8a0f0f" stop-opacity="0"/>
    </radialGradient>
    <linearGradient id="sheen" x1="0" y1="0" x2="0.6" y2="1">
      <stop offset="0" stop-color="#ffffff" stop-opacity="0.10"/>
      <stop offset="0.45" stop-color="#ffffff" stop-opacity="0.02"/>
      <stop offset="1" stop-color="#ffffff" stop-opacity="0.045"/>
    </linearGradient>
    <linearGradient id="btn" x1="0" y1="0" x2="0" y2="1">
      <stop offset="0" stop-color="#ff4b4b" stop-opacity="0.28"/><stop offset="1" stop-color="#c1121f" stop-opacity="0.22"/>
    </linearGradient>
    <filter id="soften" x="-40%" y="-40%" width="180%" height="180%"><feGaussianBlur stdDeviation="22"/></filter>
    <clipPath id="panel"><rect x="4" y="4" width="712" height="392" rx="40"/></clipPath>
  </defs>
  <g clip-path="url(#panel)">
<g>
      <rect x="4" y="4" width="712" height="392" rx="40" fill="#0a0a0d"/>
      <rect x="4" y="4" width="712" height="392" rx="40" fill="url(#rg1)"/>
      <rect x="4" y="4" width="712" height="392" rx="40" fill="url(#rg2)"/>
      <path d="M-40 345 Q 200 285 420 345 T 780 285" stroke="#ff2d2d" stroke-width="60" stroke-opacity="0.18" fill="none"/>
      <circle cx="640" cy="100" r="70" fill="#ff2d2d" fill-opacity="0.12"/>
    </g>
<g filter="url(#soften)" opacity="0.85">
      <rect x="4" y="4" width="712" height="392" rx="40" fill="#0a0a0d"/>
      <rect x="4" y="4" width="712" height="392" rx="40" fill="url(#rg1)"/>
      <rect x="4" y="4" width="712" height="392" rx="40" fill="url(#rg2)"/>
      <path d="M-40 345 Q 200 285 420 345 T 780 285" stroke="#ff2d2d" stroke-width="60" stroke-opacity="0.18" fill="none"/>
      <circle cx="640" cy="100" r="70" fill="#ff2d2d" fill-opacity="0.12"/>
    </g>
  </g>
  <rect x="4" y="4" width="712" height="392" rx="40" fill="url(#sheen)"/>
  <rect x="4.5" y="4.5" width="711" height="391" rx="39.5" fill="none" stroke="#ffffff" stroke-opacity="0.22"/>
  <path d="M64 4.5 H 580" stroke="#ffffff" stroke-opacity="0.3" stroke-width="1" stroke-linecap="round"/>
  <text x="64" y="96" font-size="34" font-weight="700" fill="#f5f5f7">GitHub activity</text>
  <g font-size="15">
    <text x="64" y="196" font-size="44" font-weight="700" fill="#f5f5f7">355</text>
    <text x="64" y="224" fill="#a1a1a6">commits</text>
    <text x="234" y="196" font-size="44" font-weight="700" fill="#f5f5f7">53</text>
    <text x="234" y="224" fill="#a1a1a6">pull requests</text>
    <text x="404" y="196" font-size="44" font-weight="700" fill="#f5f5f7">18</text>
    <text x="404" y="224" fill="#a1a1a6">repositories</text>
    <text x="574" y="196" font-size="44" font-weight="700" fill="#f5f5f7">8</text>
    <text x="574" y="224" fill="#a1a1a6">followers</text>
  </g>
  <path d="M64 302 H 656" stroke="#ffffff" stroke-opacity="0.1"/>
  <text x="64" y="344" font-size="14" fill="#8e8e93">github.com/pufferfish3e</text>
  <rect x="516" y="320" width="140" height="38" rx="19" fill="url(#btn)" stroke="#ff4b4b" stroke-opacity="0.45"/>
  <text x="573" y="344" font-size="14.5" fill="#ffb3b3" text-anchor="middle">View Profile</text>
  <text x="640" y="344" font-size="15" fill="#ff6b6b" text-anchor="middle">&#8594;</text>
</svg>
