<svg width="720" height="400" viewBox="0 0 720 400" xmlns="http://www.w3.org/2000/svg" xmlns:xlink="http://www.w3.org/1999/xlink" font-family="-apple-system,'SF Pro Display','Segoe UI','Helvetica Neue',Arial,sans-serif">
  <defs>
    <radialGradient id="rg1" cx="0.85" cy="0.9" r="0.65">
      <stop offset="0" stop-color="#ff2d2d" stop-opacity="0.55"/><stop offset="1" stop-color="#ff2d2d" stop-opacity="0"/>
    </radialGradient>
    <radialGradient id="rg2" cx="0.1" cy="0.1" r="0.5">
      <stop offset="0" stop-color="#8a0f0f" stop-opacity="0.6"/><stop offset="1" stop-color="#8a0f0f" stop-opacity="0"/>
    </radialGradient>
    <linearGradient id="sheen" x1="0" y1="0" x2="0.6" y2="1">
      <stop offset="0" stop-color="#ffffff" stop-opacity="0.10"/>
      <stop offset="0.45" stop-color="#ffffff" stop-opacity="0.02"/>
      <stop offset="1" stop-color="#ffffff" stop-opacity="0.045"/>
    </linearGradient>
    <linearGradient id="btn" x1="0" y1="0" x2="0" y2="1">
      <stop offset="0" stop-color="#ff4b4b" stop-opacity="0.28"/><stop offset="1" stop-color="#c1121f" stop-opacity="0.22"/>
    </linearGradient>
    <filter id="soften" x="-40%" y="-40%" width="180%" height="180%"><feGaussianBlur stdDeviation="22"/></filter>
    <clipPath id="panel"><rect x="4" y="4" width="712" height="392" rx="40"/></clipPath>
    <g id="wp">
      <rect x="4" y="4" width="712" height="392" rx="40" fill="#0a0a0d"/>
      <rect x="4" y="4" width="712" height="392" rx="40" fill="url(#rg1)"/>
      <rect x="4" y="4" width="712" height="392" rx="40" fill="url(#rg2)"/>
      <path d="M-40 350 Q 200 290 420 350 T 780 290" stroke="#ff2d2d" stroke-width="60" stroke-opacity="0.18" fill="none"/>
      <circle cx="620" cy="110" r="70" fill="#ff2d2d" fill-opacity="0.12"/>
    </g>
  </defs>

  <!-- glass panel on transparent canvas -->
  <g clip-path="url(#panel)">
    <use href="#wp"/>
    <use href="#wp" filter="url(#soften)" opacity="0.85"/>
  </g>
  <rect x="4" y="4" width="712" height="392" rx="40" fill="url(#sheen)"/>
  <rect x="4.5" y="4.5" width="711" height="391" rx="39.5" fill="none" stroke="#ffffff" stroke-opacity="0.22"/>
  <path d="M64 4.5 H 580" stroke="#ffffff" stroke-opacity="0.3" stroke-width="1" stroke-linecap="round"/>
  <text x="64" y="106" font-size="42" font-weight="700" fill="#f5f5f7" letter-spacing="0.2">Luminent</text>
  <text x="64" y="150" font-size="17.5" fill="#a1a1a6">AI-powered innovation engine that turns raw ideas</text>
  <text x="64" y="176" font-size="17.5" fill="#a1a1a6">into investor-ready startup concepts.</text>
<g>
      <rect x="64" y="210" width="91" height="34" rx="17" fill="#ffffff" fill-opacity="0.06" stroke="#ffffff" stroke-opacity="0.14"/>
      <text x="110" y="232" font-size="14" fill="#d1d1d6" text-anchor="middle">Next.js</text>
    </g>
<g>
      <rect x="167.39999999999998" y="210" width="116" height="34" rx="17" fill="#ffffff" fill-opacity="0.06" stroke="#ffffff" stroke-opacity="0.14"/>
      <text x="225" y="232" font-size="14" fill="#d1d1d6" text-anchor="middle">TypeScript</text>
    </g>
<g>
      <rect x="295.4" y="210" width="50" height="34" rx="17" fill="#ffffff" fill-opacity="0.06" stroke="#ffffff" stroke-opacity="0.14"/>
      <text x="321" y="232" font-size="14" fill="#d1d1d6" text-anchor="middle">AI</text>
    </g>
  <path d="M64 302 H 656" stroke="#ffffff" stroke-opacity="0.1"/>
  <text x="64" y="344" font-size="14" fill="#8e8e93">pufferfish3e/Luminent</text>
  <rect x="516" y="320" width="140" height="38" rx="19" fill="url(#btn)" stroke="#ff4b4b" stroke-opacity="0.45"/>
  <text x="576" y="344" font-size="14.5" fill="#ffb3b3" text-anchor="middle">View Project</text>
  <text x="640" y="344" font-size="15" fill="#ff6b6b" text-anchor="middle">&#8594;</text>
</svg>
