<svg width="88" height="88" viewBox="0 0 88 88" xmlns="http://www.w3.org/2000/svg">
  <defs>
    <radialGradient id="g" cx="0.8" cy="0.9" r="0.9">
      <stop offset="0" stop-color="#ff2d2d" stop-opacity="0.35"/><stop offset="1" stop-color="#ff2d2d" stop-opacity="0"/>
    </radialGradient>
    <linearGradient id="s" x1="0" y1="0" x2="0.6" y2="1">
      <stop offset="0" stop-color="#ffffff" stop-opacity="0.12"/>
      <stop offset="0.5" stop-color="#ffffff" stop-opacity="0.02"/>
      <stop offset="1" stop-color="#ffffff" stop-opacity="0.05"/>
    </linearGradient>
    <clipPath id="p"><rect x="2" y="2" width="84" height="84" rx="24"/></clipPath>
  </defs>
  <g clip-path="url(#p)">
    <rect x="2" y="2" width="84" height="84" rx="24" fill="#0a0a0d"/>
    <rect x="2" y="2" width="84" height="84" rx="24" fill="url(#g)"/>
  </g>
  <rect x="2" y="2" width="84" height="84" rx="24" fill="url(#s)"/>
  <rect x="2.5" y="2.5" width="83" height="83" rx="23.5" fill="none" stroke="#ffffff" stroke-opacity="0.22"/>
  <path d="M18 2.5 H 66" stroke="#ffffff" stroke-opacity="0.3" stroke-width="1" stroke-linecap="round"/>
  <path fill="#e8e8ed" d="M63.5 25.5 L 21.5 41.8 c -2.3 0.9-2.2 2.9 0.05 3.6 l 10.6 3.3 l 4.1 12.9 c 0.6 1.9 1.9 2.2 3.2 1 l 5.9-5.6 l 11 8.1 c 1.9 1.4 3.6 0.7 4.1-1.7 l 6.5-33.8 c 0.6-3-1.2-4.4-3.45-3.1 Z M 34.5 48 l 22.6-14.1 c 1.1-0.7 1.9-0.3 1.05 0.6 L 39.4 51.6 l -0.8 8.4 Z"/>
</svg>
